<svg width="25" height="24" viewBox="0 0 25 24" fill="none" xmlns="http://www.w3.org/2000/svg">
<path d="M17.1667 6H14.1667C13.6144 6 13.1667 6.44772 13.1667 7V10H17.1667C17.2804 9.99748 17.3883 10.0504 17.4559 10.1419C17.5235 10.2334 17.5425 10.352 17.5067 10.46L16.7667 12.66C16.6985 12.8619 16.5098 12.9984 16.2967 13H13.1667V20.5C13.1667 20.7761 12.9428 21 12.6667 21H10.1667C9.89061 21 9.66675 20.7761 9.66675 20.5V13H8.16675C7.89061 13 7.66675 12.7761 7.66675 12.5V10.5C7.66675 10.2239 7.89061 10 8.16675 10H9.66675V7C9.66675 4.79086 11.4576 3 13.6667 3H17.1667C17.4428 3 17.6667 3.22386 17.6667 3.5V5.5C17.6667 5.77614 17.4428 6 17.1667 6Z" fill="black"/>
</svg>
