<svg width="25" height="24" viewBox="0 0 25 24" fill="none" xmlns="http://www.w3.org/2000/svg">
<path fill-rule="evenodd" clip-rule="evenodd" d="M5.66675 3H19.6667C20.7713 3 21.6667 3.89543 21.6667 5V19C21.6667 20.1046 20.7713 21 19.6667 21H5.66675C4.56218 21 3.66675 20.1046 3.66675 19V5C3.66675 3.89543 4.56218 3 5.66675 3ZM8.66675 18C8.94289 18 9.16675 17.7761 9.16675 17.5V10.5C9.16675 10.2239 8.94289 10 8.66675 10H7.16675C6.89061 10 6.66675 10.2239 6.66675 10.5V17.5C6.66675 17.7761 6.89061 18 7.16675 18H8.66675ZM7.91675 9C7.08832 9 6.41675 8.32843 6.41675 7.5C6.41675 6.67157 7.08832 6 7.91675 6C8.74518 6 9.41675 6.67157 9.41675 7.5C9.41675 8.32843 8.74518 9 7.91675 9ZM18.1667 18C18.4428 18 18.6667 17.7761 18.6667 17.5V12.9C18.6992 11.3108 17.5243 9.95452 15.9467 9.76C14.8437 9.65925 13.775 10.1744 13.1667 11.1V10.5C13.1667 10.2239 12.9428 10 12.6667 10H11.1667C10.8906 10 10.6667 10.2239 10.6667 10.5V17.5C10.6667 17.7761 10.8906 18 11.1667 18H12.6667C12.9428 18 13.1667 17.7761 13.1667 17.5V13.75C13.1667 12.9216 13.8383 12.25 14.6667 12.25C15.4951 12.25 16.1667 12.9216 16.1667 13.75V17.5C16.1667 17.7761 16.3906 18 16.6667 18H18.1667Z" fill="black"/>
</svg>
