<svg width="33" height="32" viewBox="0 0 33 32" fill="none" xmlns="http://www.w3.org/2000/svg">
<path d="M15.7929 4.59534V4.59638C15.776 4.62546 12.2955 10.6293 7.95067 17.9596C3.59532 25.3078 0 31.1907 0 31.1907L12.3315 31.1366L12.3323 31.1365L12.3297 31.1461C18.3172 31.0301 23.7182 27.0935 25.3119 21.1454C25.8102 19.2861 25.8853 17.4144 25.5964 15.6256C24.8043 10.3584 20.9149 6.0746 15.7929 4.59534Z" fill="black"/>
<path d="M22.6078 0.809326V0.81037C22.591 0.839449 19.1104 6.8433 14.7656 14.1736C10.4103 21.5218 6.81494 27.4047 6.81494 27.4047L19.1464 27.3506L19.1472 27.3505L19.1446 27.36C25.1321 27.2441 30.5331 23.3075 32.1269 17.3594C32.6251 15.5001 32.7003 13.6284 32.4113 11.8396C31.6192 6.57236 27.7299 2.28859 22.6078 0.809326Z" fill="#10F2C5"/>
</svg>
